<svg version="1.2" xmlns="http://www.w3.org/2000/svg" viewBox="0 0 19 19" width="19" height="19">
	<title>image</title>
	<style>
		.s0 { fill: none;stroke: #797979;stroke-linecap: round;stroke-linejoin: round;stroke-width: 1.5 } 
	</style>
	<path id="Layer" fill-rule="evenodd" class="s0" d="m16.2 10.4v5.9c0 0.5-0.2 0.9-0.5 1.2-0.3 0.3-0.7 0.5-1.2 0.5h-11.8c-0.5 0-0.9-0.2-1.2-0.5-0.3-0.3-0.5-0.7-0.5-1.2v-11.8c0-0.5 0.2-0.9 0.5-1.2 0.3-0.3 0.7-0.5 1.2-0.5h5.9m-1.7 6.8l-0.8 3.3 3.3-0.8 8.1-8c0.3-0.4 0.5-0.8 0.5-1.3 0-0.5-0.2-0.9-0.5-1.3-0.4-0.3-0.8-0.5-1.3-0.5-0.5 0-0.9 0.2-1.3 0.5z"/>
</svg>